<?xml version="1.0" encoding="utf-8"?><!-- Uploaded to: SVG Repo, www.svgrepo.com, Generator: SVG Repo Mixer Tools -->
<svg width="800px" height="800px" viewBox="0 0 24 24" fill="none" xmlns="http://www.w3.org/2000/svg">
<path d="M20.3331 7.66665H14.4998V6H20.3331V7.66665ZM21.7714 15.9999C21.4031 17.0807 20.0806 18.4999 17.5206 18.4999C14.959 18.4999 12.884 17.059 12.884 13.7707C12.884 10.5125 14.8215 8.83747 17.439 8.83747C20.0073 8.83747 21.5756 10.3225 21.9181 12.5258C21.9831 12.9474 22.0089 13.5158 21.9973 14.3091H15.3082C15.4165 16.9849 18.2106 17.069 19.1315 15.9999H21.7714ZM15.3665 12.6666H19.5039C19.4164 11.3774 18.5573 10.8174 17.4398 10.8174C16.2181 10.8174 15.5423 11.4574 15.3665 12.6666ZM7.38824 18.4899H1.99997V6.0175H7.79407C12.3574 6.085 12.444 10.5541 10.0607 11.7724C12.9449 12.8224 13.0415 18.4899 7.38824 18.4899V18.4899ZM4.49994 10.9999H7.48658C9.57655 10.9999 9.90822 8.49997 7.22658 8.49997H4.49994V10.9999V10.9999ZM7.32574 13.4999H4.49994V16.0132H7.28408C9.82988 16.0132 9.67405 13.4999 7.32574 13.4999V13.4999Z" stroke="#000000" stroke-linejoin="round"/>
</svg>